<svg xmlns="http://www.w3.org/2000/svg" xmlns:xlink="http://www.w3.org/1999/xlink" version="1.1" fill-rule="evenodd" fill="none" stroke="none" stroke-linecap="square" stroke-miterlimit="10" overflow="hidden" viewBox="0 0 504636.97 245798.13"><rect fill="#ffffff" fill-opacity="0" width="100%" height="100%"/><g transform="translate(105156 6858) scale(1)" data-lt-tmp-id="lt-864455" spellcheck="false" data-gramm="false" data-lt-tweaks="slides"><defs cursor="default"><linearGradient gradientUnits="userSpaceOnUse" x1="0.00003344460131730852" y1="-0.16420717117837003" x2="-0.09236653378783315" y2="453.5036037939534" gradientTransform="matrix(453.66782037483176,0,0,453.66782037483176,0,0)" id="gradient-94"><stop offset="0%" stop-color="#ABE9D7" stop-opacity="1"/><stop offset="50%" stop-color="#C4ECE1" stop-opacity="1"/><stop offset="100%" stop-color="#E4FDF6" stop-opacity="1"/></linearGradient></defs><g id="editor-ge4b7ac326b_0_193"><path fill="#fff" fill-opacity="1" d="M 0 0 L 365760 0 365760 205740 0 205740 Z"/><g id="editor-ge4b7ac326b_0_193-bg"><g><g><g><path fill="url(#gradient-94)" d="M 0 0 L 365760 0 365760 205740 0 205740 Z"/></g></g></g></g><g id="editor-g115866e4b2a_1_15"><g><g><path fill="#FFFFFF" fill-opacity="0.3464" d="M -592 -1184 L -1184 51213 370036 16282 368556 -1776 Z"/></g></g></g><g id="editor-g115866e4b2a_1_16"><g><g><path stroke="#AAAA35" stroke-opacity="1" stroke-width="381" stroke-linecap="butt" stroke-linejoin="round" stroke-miterlimit="8" d="M 7776 6720 L 357984 6720 357984 208308 7776 208308 Z"/></g></g></g><g id="editor-g115866e4b2a_1_175"><g id="editor-g115866e4b2a_1_71"><g><g><path fill="#FFFFFF" fill-opacity="0.6313" d="M 46446.871199999994 133355.7809 C 46372.8152 133355.7809 46302.462 133359.4837 46228.406 133370.5921 34360.932 134762.84490000003 45091.6464 145260.28290000002 35153.3312 146437.7733 34801.5652 146478.50410000002 34442.393599999996 146489.61250000002 34083.222 146489.61250000002 33431.5292 146489.61250000002 32776.1336 146448.88170000003 32146.6576 146448.88170000003 31798.594399999994 146448.88170000003 31457.936799999996 146459.99010000002 31128.387599999995 146500.72090000001 31120.981999999996 146500.72090000001 31113.576399999998 146500.72090000001 31106.1708 146500.72090000001 30621.104 146500.72090000001 31095.062399999995 144286.44650000002 29869.435599999997 144286.44650000002 29828.7048 144286.44650000002 29784.271199999996 144290.14930000002 29736.1348 144293.85210000002 28895.599199999997 144382.7193 28084.686 145667.5909 27677.377999999997 145730.53850000002 27677.377999999997 145730.53850000002 24485.564399999996 135533.02730000002 18290.78 135533.02730000002 18064.909200000002 135533.02730000002 17839.038399999998 135547.8385 17605.761999999995 135573.7581 14439.868000000002 135940.3353 11118.456399999995 138895.1697 12058.967599999996 146952.46250000002 12329.271999999997 149240.7929 12514.411999999997 149696.2373 12121.915199999996 149696.2373 11862.7192 149696.2373 11348.029999999999 149496.28610000003 10437.141199999998 149496.28610000003 10200.161999999997 149496.28610000003 9933.560400000002 149511.09730000002 9637.3364 149544.42250000002 9622.525199999996 149544.42250000002 9611.416799999999 149544.42250000002 9596.605599999995 149544.42250000002 8130.2968 149544.42250000002 4890.346799999999 141027.9825 -841.5876000000026 141027.9825 -1563.633600000001 141027.9825 -2326.4104000000007 141164.9861 -3126.2152000000024 141468.61570000002 -10665.116 144319.7717 -10342.9724 155779.9377 -11790.7672 155779.9377 -12016.638 155779.9377 -12286.9424 155498.52490000002 -12638.7084 154854.2377 -13964.310800000001 152736.2361 -14330.888 149603.6673 -16171.1796 148000.3549 -17930.0096 146845.08130000002 -19559.2416 147033.9241 -21336.5856 145878.65050000002 -22299.3136 146008.24850000002 -23736 148622.4253 -23543.4544 150225.7377 -22751.0552 154683.9089 -20866.33 159012.48210000002 -18829.79 162396.8413 -21251.4212 163296.62170000002 -22902.87 165995.9629 -22365.964 170535.5957 -21921.628 174323.5601 -19077.8776 182754.8357 -16604.4072 182754.8357 -16559.9736 182754.8357 -16519.2428 182751.13290000003 -16474.8092 182747.4301 -15830.522 182684.4825 -15167.720800000001 182277.17450000002 -14630.8148 181892.0833 L 83697.0392 173471.9161 C 89288.2672 170839.22530000002 95497.8628 168091.7477 94298.1556 157790.55810000002 93383.564 150107.24810000003 87299.8636 147296.8229 84563.4944 147296.8229 84430.1936 147296.8229 84304.2984 147304.22850000003 84185.8088 147319.03970000002 80568.17319999999 147744.8617 76047.0544 152647.3689 74573.34 152817.69770000002 74536.31199999999 152821.40050000002 74499.284 152825.10330000002 74462.256 152825.10330000002 72925.594 152825.10330000002 71777.726 148981.5969 70126.2772 148981.5969 70085.54639999999 148981.5969 70044.8156 148985.2997 70007.7876 148989.0025 69918.9204 149007.51650000003 68722.916 149674.0205 67712.05159999999 149799.9157 67597.26479999999 149814.7269 67482.478 149822.1325 67367.6912 149822.1325 62287.44959999999 149822.1325 59784.356799999994 136329.1293 55122.5316 136329.1293 55029.961599999995 136329.1293 54933.6888 136336.5349 54841.1188 136347.64330000003 53900.6076 136455.0245 53019.341199999995 136969.71370000002 52141.7776 137077.09490000003 52067.721600000004 137084.50050000002 51993.66559999999 137088.20330000002 51923.312399999995 137088.20330000002 49797.905199999994 137088.20330000002 48572.278399999996 133355.7809 46446.871199999994 133355.7809 Z"/></g></g></g><g id="editor-g115866e4b2a_1_72"><g><g><path fill="#FFFFFF" fill-opacity="0.6313" d="M 377900.9247 135521 C 377349.9852 135521 376787.50769999996 135570.0365 376216.3767 135668.1095 374710.6677 135846.9485 373926.08369999996 137834.369 373049.1957 137834.369 373043.4267 137834.369 373034.7732 137834.369 373026.1197 137834.369 373026.1197 137834.369 369137.8137 137185.3565 364799.5257 137018.0555 364159.1667 136994.9795 363518.8077 136983.4415 362878.4487 136983.4415 351767.3547 136983.4415 340884.1362 140447.726 339684.1842 149031.998 339652.4547 149031.998 339623.6097 149031.998 339591.8802 149031.998 337996.7517 149031.998 337910.2167 150269.4485 336566.03969999996 150485.786 334812.2637 150451.172 333237.3267 149617.5515 331301.8272 149617.5515 330410.5167 149617.5515 329447.09369999997 149793.506 328353.8682 150301.178 328200.9897 150350.2145 328036.5732 150364.637 327837.5427 150364.637 327301.0257 150350.2145 326652.0132 150185.798 326118.3807 150165.6065 326118.3807 150165.6065 321099.3507 150508.862 315938.9802 150508.862 315186.1257 150508.862 314427.5022 150503.093 313683.3012 150485.786 312192.0147 150681.932 310429.5852 151221.3335 309076.7547 151221.3335 309036.3717 151221.3335 308998.8732 151218.449 308961.3747 151218.449 308814.2652 151218.449 302805.8517 150001.19 299064.6552 149917.5395 298903.1232 149911.7705 298738.7067 149911.7705 298574.2902 149911.7705 295828.2462 149911.7705 292955.2842 150416.558 292909.1322 150416.558 291475.5357 150384.8285 289874.6382 149649.281 288236.2422 149617.5515 288207.3972 149614.667 288181.43669999996 149614.667 288158.36069999996 149614.667 286770.9162 149614.667 286594.9617 150433.865 285129.6357 150433.865 285103.6752 150433.865 285074.83019999997 150433.865 285045.9852 150433.865 284096.9847 150402.1355 283044.1422 150185.798 282112.4487 150165.6065 282072.0657 150165.6065 282034.5672 150162.722 281997.0687 150162.722 280592.3172 150162.722 279960.6117 150736.7375 279940.4202 151385.75 279940.4202 152003.033 280476.9372 152637.623 280476.9372 153269.3285 280462.5147 153520.28 280361.5572 153788.5385 280093.2987 154039.49 279908.6907 153771.2315 279623.1252 153704.888 279340.44419999997 153690.4655 277136.6862 153652.967 277257.8352 153638.5445 277257.8352 153638.5445 277185.7227 153635.66 277113.6102 153635.66 277044.3822 153635.66 273562.7907 153635.66 270528.2967 155242.3265 267193.8147 155424.05 264505.4607 155372.12900000002 261436.3527 154922.147 258534.5457 154870.226 258393.2052 154870.226 258251.86469999998 154867.3415 258113.4087 154867.3415 251885.7732 154867.3415 249586.82669999998 157394.1635 249586.82669999998 158997.9455 249586.82669999998 161648.801 254928.9207 163967.939 258280.70969999998 165066.93349999998 279825.0402 171075.347 328270.2177 170391.7205 383840.1102 175549.2065 383892.03119999997 175133.8385 383923.7607 174695.3945 383955.4902 174280.0265 384541.0437 165886.1315 382169.98470000003 158074.9055 382824.76619999995 148582.016 383055.52619999996 145210.0355 383808.3807 141774.596 385495.8132 138517.9955 383609.3502 136847.87 381068.10569999996 135630.611 378316.2927 135529.6535 378180.7212 135523.8845 378039.3807 135521 377900.9247 135521 Z"/></g></g></g><g id="editor-g115866e4b2a_1_174"><g id="editor-g115866e4b2a_1_73"><g><g><path fill="#EF5F3C" fill-opacity="1" d="M 193671.6929 155243.9282 C 193532.2944 155243.9282 193414.7294 155267.4412 193414.7294 155267.4412 L 193392.8959 155791.4452 C 193392.8959 155791.4452 193666.6544 155643.64919999999 193890.02790000002 155643.64919999999 193928.6564 155643.64919999999 193963.9259 155647.00819999998 193997.5159 155657.0852 194026.0674 155665.4827 194059.6574 155668.8417 194099.96540000002 155668.8417 194442.5834 155668.8417 195132.8579 155393.4037 195132.8579 155393.4037 L 195132.8579 155393.4037 C 195132.8579 155393.4037 194902.7664 155416.9167 194642.4439 155416.9167 194400.59590000001 155416.9167 194133.5554 155396.7627 194007.5929 155316.14669999998 193915.2204 155259.0437 193785.8989 155243.9282 193671.6929 155243.9282 Z"/></g></g></g><g id="editor-g115866e4b2a_1_74"><g><g><path fill="#CB9B75" fill-opacity="1" d="M 193335.7929 155238.8897 L 193335.7929 160388.2367 193424.8064 160388.2367 193424.8064 155238.8897 Z"/></g></g></g><g id="editor-g115866e4b2a_1_75"><g><g><path fill="#AAAA35" fill-opacity="1" d="M 187388.6834 147917.9492 C 187376.92690000002 147917.9492 187363.4909 147919.6287 187351.73440000002 147921.3082 186211.35390000002 148171.55370000002 184421.0069 159358.7032 187165.3099 159358.7032 187185.4639 159358.7032 187203.9384 159358.7032 187224.0924 159357.02370000002 190473.9249 159175.6377 188539.1409 147917.9492 187388.6834 147917.9492 Z"/></g></g></g><g id="editor-g115866e4b2a_1_76"><g><g><path fill="#AAAA35" fill-opacity="1" d="M 187262.72090000001 156258.3462 L 187262.72090000001 161515.1812 187398.76040000003 161515.1812 187398.76040000003 156258.3462 Z"/></g></g></g><g id="editor-g115866e4b2a_1_77"><g><g><path fill="#AAAA35" fill-opacity="1" d="M 200702.0799 158270.3872 L 200702.0799 161164.16569999998 200828.0424 161164.16569999998 200828.0424 158270.3872 Z"/></g></g></g><g id="editor-g115866e4b2a_1_78"><g><g><path fill="#AAAA35" fill-opacity="1" d="M 197388.4264 157862.26870000002 L 197378.3494 160698.94420000003 197514.38890000002 160698.94420000003 197522.7864 157862.26870000002 Z"/></g></g></g><g id="editor-g115866e4b2a_1_79"><g><g><path fill="#AAAA35" fill-opacity="1" d="M 201002.7104 149454.6917 C 199130.0679 149454.6917 198888.2199 158742.3267 199544.9044 158999.2902 200003.4079 159184.03519999998 200352.7439 159296.5617 200747.4264 159296.5617 201054.7749 159296.5617 201390.67489999998 159229.3817 201829.0244 159074.8677 202720.8389 158765.8397 203102.0854 150613.5467 201380.5979 149572.2567 201247.9174 149491.6407 201121.9549 149454.6917 201002.7104 149454.6917 Z"/></g></g></g><g id="editor-g115866e4b2a_1_80"><g><g><path fill="#AAAA35" fill-opacity="1" d="M 197482.47840000002 146745.6582 C 197474.0809 146745.6582 197465.6834 146745.6582 197455.60640000002 146745.6582 195514.1044 146863.2232 195735.7984 158240.1562 196338.73890000003 158540.7867 196756.9344 158749.0447 197087.79590000003 158878.36620000002 197467.3629 158878.36620000002 197801.5834 158878.36620000002 198174.43240000002 158777.5962 198679.96190000002 158540.7867 199753.1624 158040.29570000002 199402.14690000002 146745.6582 197482.47840000002 146745.6582 Z"/></g></g></g><g id="editor-g115866e4b2a_1_81"><g><g><path fill="#8A8728" fill-opacity="1" d="M 226636.9189 149829.2202 C 226620.1239 149829.2202 226606.68790000002 149840.9767 226596.6109 149864.4897 224604.7239 154607.3977 223264.4829 163711.9672 225090.0994 165129.4652 225743.4249 165638.3537 226354.7629 165858.3682 226917.3954 165858.3682 227794.0944 165858.3682 228548.1899 165325.96670000002 229151.1304 164528.2042 231262.2619 161757.02920000002 227181.07690000001 149829.2202 226636.9189 149829.2202 Z"/></g></g></g><g id="editor-g115866e4b2a_1_82"><g><g><path fill="#8A8728" fill-opacity="1" d="M 223796.8844 158156.1812 C 223788.4869 158156.1812 223781.7689 158161.2197 223776.7304 158172.9762 222785.8254 160524.2762 222125.7819 165052.2082 223031.0324 165760.9572 223353.4964 166011.2027 223655.8064 166120.3702 223936.2829 166120.3702 224371.2734 166120.3702 224749.16090000002 165856.6887 225049.79140000002 165460.3267 226097.79940000002 164074.73919999998 224070.6429 158156.1812 223796.8844 158156.1812 Z"/></g></g></g><g id="editor-g115866e4b2a_1_83"><g><g><path fill="#8A8728" fill-opacity="1" d="M 220852.7209 159246.1767 C 220840.9644 159246.1767 220830.88739999998 159251.2152 220824.16939999998 159261.29220000003 219435.2229 161594.1177 218570.2804 166101.89570000002 219910.5214 166840.8757 220411.01239999998 167111.2752 220872.8749 167228.8402 221296.1089 167228.8402 221914.1649 167228.8402 222443.20739999998 166976.91520000002 222864.76189999998 166595.6687 224372.9529 165248.7097 221249.08289999998 159246.1767 220852.7209 159246.1767 Z"/></g></g></g><g id="editor-g115866e4b2a_1_84"><g><g><path fill="#8A8728" fill-opacity="1" d="M 217119.1924 159892.7842 C 217107.4359 159892.7842 217099.0384 159899.5022 217093.9999 159912.9382 216129.9669 162361.64919999999 215829.3364 166936.6072 217043.6149 167541.2272 217419.8229 167725.9722 217764.1204 167808.2677 218074.8279 167808.2677 218689.5249 167808.2677 219179.9389 167489.1627 219542.7109 167025.6207 220688.1299 165539.2632 217470.2079 159892.7842 217119.1924 159892.7842 Z"/></g></g></g><g id="editor-g115866e4b2a_1_85"><g><g><path fill="#8A8728" fill-opacity="1" d="M 232605.8619 158386.2727 C 232594.1054 158386.2727 232585.70789999998 158392.9907 232580.66939999998 158406.4267 231618.3159 160863.5352 231317.6854 165441.8522 232542.0409 166043.1132 232916.56939999998 166229.53770000002 233260.8669 166310.1537 233571.57439999998 166310.1537 234186.2714 166310.1537 234673.3264 165989.36920000002 235027.7009 165519.1092 236176.4789 164034.4312 232960.2364 158386.2727 232605.8619 158386.2727 Z"/></g></g></g><g id="editor-g115866e4b2a_1_86"><g><g><path fill="#8A8728" fill-opacity="1" d="M 237394.1164 159027.8417 C 237385.71889999998 159027.8417 237379.00089999998 159031.2007 237372.2829 159037.91869999998 235553.38439999998 160952.54869999998 233571.57439999998 165070.6827 234485.2224 166061.5877 234970.5979 166590.63019999999 235479.4864 166803.92669999998 235969.90039999998 166803.92669999998 236337.71089999998 166803.92669999998 236693.76489999998 166684.68219999998 237022.94689999998 166491.5397 238662.1389 165532.5452 237718.25989999998 159027.8417 237394.1164 159027.8417 Z"/></g></g></g><g id="editor-g115866e4b2a_1_87"><g><g><path fill="#8A8728" fill-opacity="1" d="M 240496.15290000004 159741.6292 C 240487.75540000002 159741.6292 240479.35790000003 159746.6677 240470.96040000004 159756.7447 238479.07340000002 162195.3787 236156.32490000004 167296.0202 237031.34440000003 168433.0417 237456.25790000003 168988.9562 237921.47940000004 169214.0092 238388.38040000002 169214.0092 238798.17840000003 169214.0092 239206.29690000004 169041.0207 239587.54340000002 168765.5827 241339.26190000004 167484.1242 240827.01440000004 159741.6292 240496.15290000004 159741.6292 Z"/></g></g></g><g id="editor-g115866e4b2a_1_88"><g><g><path fill="#8A8728" fill-opacity="1" d="M 231976.0494 152434.12470000001 C 231967.6519 152434.12470000001 231957.5749 152442.5222 231950.8569 152459.31720000002 230180.6639 156288.57720000003 228304.6624 163925.2637 229268.6954 165362.9157 229663.3779 165959.13820000002 230073.1759 166209.3837 230472.8969 166209.3837 230948.1954 166209.3837 231411.7374 165856.68870000003 231821.5354 165314.21020000003 233438.8939 163171.16820000001 232308.5904 152434.12470000001 231976.0494 152434.12470000001 Z"/></g></g></g><g id="editor-g115866e4b2a_1_89"><g><g><path fill="#8A8728" fill-opacity="1" d="M 219336.13240000003 154291.65170000002 C 219322.69640000002 154291.65170000002 219310.93990000003 154291.65170000002 219299.18340000004 154295.0107 218160.48240000004 154546.93570000003 216368.45590000003 165744.16220000002 219114.43840000004 165744.16220000002 219132.91290000002 165744.16220000002 219151.38740000004 165744.16220000002 219171.54140000002 165742.48270000002 222423.05340000003 165561.09670000002 220486.58990000002 154291.65170000002 219336.13240000003 154291.65170000002 Z"/></g></g></g><g id="editor-g115866e4b2a_1_90"><g><g><path fill="#8A8728" fill-opacity="1" d="M 222700.17090000003 161846.0427 L 222700.17090000003 167111.2752 223067.98140000002 167111.2752 223067.98140000002 161846.0427 Z"/></g></g></g><g id="editor-g115866e4b2a_1_91"><g><g><path fill="#8A8728" fill-opacity="1" d="M 219287.4269 162564.8687 L 219287.4269 167820.02419999999 219668.6734 167820.02419999999 219668.6734 162564.8687 Z"/></g></g></g><g id="editor-g115866e4b2a_1_92"><g><g><path fill="#8A8728" fill-opacity="1" d="M 236322.59540000002 162351.5722 L 236166.40190000003 165245.35069999998 236408.24990000002 165255.4277 236564.44340000002 162370.0467 236322.59540000002 162351.5722 Z"/></g></g></g><g id="editor-g115866e4b2a_1_93"><g><g><path fill="#8A8728" fill-opacity="1" d="M 233163.45590000003 162993.1412 L 233019.01890000002 165886.9197 233250.78990000003 165908.7532 233406.98340000003 163011.61570000002 233163.45590000003 162993.1412 Z"/></g></g></g><g id="editor-g115866e4b2a_1_94"><g><g><path fill="#8A8728" fill-opacity="1" d="M 229754.0709 162564.8687 L 229606.2749 165460.3267 229839.7254 165478.8012 229995.9189 162585.0227 229754.0709 162564.8687 Z"/></g></g></g><g id="editor-g115866e4b2a_1_95"><g><g><path fill="#8A8728" fill-opacity="1" d="M 222797.58190000002 149691.5012 C 218440.95890000003 149691.5012 220951.81140000004 164173.8297 222666.58090000003 164173.8297 222686.73490000004 164173.8297 222706.88890000002 164172.1502 222727.04290000003 164168.7912 224846.57190000004 163738.8392 226119.63290000003 157559.9587 226003.74740000002 155811.5992 225798.84840000002 152770.0247 224099.19440000004 149864.4897 223135.16140000004 149720.0527 223017.59640000004 149701.5782 222905.06990000003 149691.5012 222797.58190000002 149691.5012 Z"/></g></g></g><g id="editor-g115866e4b2a_1_96"><g><g><path fill="#8A8728" fill-opacity="1" d="M 236671.9314 151295.4237 C 234280.3234 151295.4237 234004.8854 162467.45770000003 234844.6354 162788.2422 235437.4989 163008.25670000003 235885.9254 163140.93720000001 236394.8139 163140.93720000001 236784.4579 163140.93720000001 237211.0509 163063.6802 237768.6449 162885.6532 238897.2689 162514.4837 239354.0929 152702.84470000002 237157.3069 151438.18120000002 236985.9979 151340.77020000003 236824.7659 151295.4237 236671.9314 151295.4237 Z"/></g></g></g><g id="editor-g115866e4b2a_1_97"><g><g><path fill="#8A8728" fill-opacity="1" d="M 233319.6494 154167.3687 C 231438.6094 154167.3687 231203.47939999998 163455.0037 231851.7664 163711.96719999998 232315.30839999998 163896.71219999998 232664.6444 164005.8797 233057.6474 164005.8797 233366.67539999998 164005.8797 233704.25489999997 163938.6997 234144.28389999998 163789.2242 235027.7009 163478.51669999998 235417.34489999997 155326.2237 233699.21639999998 154284.9337 233564.8564 154205.99719999998 233438.8939 154167.3687 233319.6494 154167.3687 Z"/></g></g></g><g id="editor-g115866e4b2a_1_98"><g><g><path fill="#8A8728" fill-opacity="1" d="M 229789.34040000004 151458.3352 C 229780.94290000002 151458.3352 229772.54540000003 151458.3352 229762.46840000004 151460.0147 227820.96640000003 151575.9002 228044.33990000005 162952.8332 228655.67790000004 163245.0662 229073.87340000004 163451.6447 229406.41440000004 163582.6457 229785.98140000005 163582.6457 230120.20190000004 163582.6457 230493.05090000003 163481.8757 230996.90090000004 163245.0662 232061.70390000002 162741.2162 231709.00890000004 151458.3352 229789.34040000004 151458.3352 Z"/></g></g></g><g id="editor-g115866e4b2a_1_99"><g><g><path fill="#8A8728" fill-opacity="1" d="M 258109.06939999998 150532.9307 C 258090.5949 150532.9307 258077.15889999998 150543.0077 258068.7614 150563.1617 256318.7224 154635.9492 255433.62589999998 162361.64919999999 257329.78139999998 163478.5167 257961.27339999998 163854.7247 258545.7394 164019.3157 259076.4614 164019.3157 260000.18639999998 164019.3157 260766.0384 163525.5427 261352.18389999997 162796.6397 263318.8784 160378.1597 258658.2659 150532.9307 258109.06939999998 150532.9307 Z"/></g></g></g><g id="editor-g115866e4b2a_1_100"><g><g><path fill="#8A8728" fill-opacity="1" d="M 255685.55090000003 157660.7287 C 255677.15340000004 157660.7287 255670.43540000005 157665.7672 255667.07640000002 157675.84420000002 254803.81340000004 159708.0392 254365.46390000003 163537.2992 255297.58640000003 164101.6112 255611.65290000004 164282.9972 255902.20640000002 164363.61320000002 256164.20840000003 164363.61320000002 256627.75040000002 164363.61320000002 257008.99690000003 164118.4062 257297.87090000004 163760.6727 258280.37840000005 162553.1122 255962.66840000002 157660.7287 255685.55090000003 157660.7287 Z"/></g></g></g><g id="editor-g115866e4b2a_1_101"><g><g><path fill="#8A8728" fill-opacity="1" d="M 252801.8494 158702.01870000002 C 252788.4134 158702.01870000002 252778.3364 158707.0572 252771.61839999998 158717.13420000003 251498.5574 160737.57270000002 250867.0654 164576.90970000002 252247.6144 165137.86270000003 252711.15639999998 165327.64620000002 253137.7494 165409.94170000002 253527.3934 165409.94170000002 254199.1934 165409.94170000002 254756.7874 165166.41420000003 255181.7009 164810.36020000002 256612.6349 163614.55620000002 253204.9294 158702.01870000002 252801.8494 158702.01870000002 Z"/></g></g></g><g id="editor-g115866e4b2a_1_102"><g><g><path fill="#8A8728" fill-opacity="1" d="M 249096.8724 159407.4087 C 249083.4364 159407.4087 249075.03889999999 159412.4472 249070.0004 159425.8832 248243.6864 161523.5787 248166.4294 165401.5442 249419.3364 165858.3682 249761.9544 165986.0102 250077.7004 166041.4337 250361.5359 166041.4337 251021.5794 166041.4337 251525.4294 165740.8032 251876.4449 165314.2102 252946.28639999998 164009.2387 249469.72139999998 159407.4087 249096.8724 159407.4087 Z"/></g></g></g><g id="editor-g115866e4b2a_1_103"><g><g><path fill="#8A8728" fill-opacity="1" d="M 264496.2079 157484.3812 C 264482.77189999993 157484.3812 264474.3744 157489.4197 264469.33589999995 157501.17620000002 263634.6244 159612.3077 263567.4444 163478.5167 264810.27439999994 163935.3407 265156.25139999995 164061.3032 265471.99739999993 164116.7267 265759.1919 164116.7267 266422.59439999994 164116.7267 266926.4444 163817.7757 267279.1393999999 163389.5032 268348.98089999997 162086.21120000002 264860.65939999995 157484.3812 264496.2079 157484.3812 Z"/></g></g></g><g id="editor-g115866e4b2a_1_104"><g><g><path fill="#8A8728" fill-opacity="1" d="M 269302.9369 157813.5632 C 269294.5394 157813.5632 269287.8214 157816.9222 269281.1034 157823.6402 267571.3724 159513.2172 265801.1794 163070.3982 266763.5329 163868.1607 267240.5109 164264.5227 267727.5659 164425.75470000002 268191.1079 164425.75470000002 268589.1494 164425.75470000002 268968.7164 164308.18970000002 269307.9754 164120.0857 270901.8209 163236.6687 269637.15739999997 157813.5632 269302.9369 157813.5632 Z"/></g></g></g><g id="editor-g115866e4b2a_1_105"><g><g><path fill="#8A8728" fill-opacity="1" d="M 272443.60189999995 158285.5027 C 272435.2044 158285.5027 272426.80689999997 158290.5412 272418.40939999995 158298.9387 270554.16439999995 160436.94220000002 268491.7384 164828.8347 269415.46339999995 165752.5597 269845.4154 166180.8322 270298.88039999997 166355.5002 270743.94789999997 166355.5002 271177.25889999996 166355.5002 271602.1724 166189.22970000003 271990.1369 165927.22770000002 273676.3549 164771.7317 272777.82239999995 158285.5027 272443.60189999995 158285.5027 Z"/></g></g></g><g id="editor-g115866e4b2a_1_106"><g><g><path fill="#8A8728" fill-opacity="1" d="M 278412.5449 157130.0067 C 278400.78839999996 157130.0067 278390.7114 157136.7247 278383.9934 157151.8402 277218.42039999994 159746.6677 276509.6714 164546.6787 277666.84689999995 165159.6962 278009.46489999996 165342.7617 278331.92889999994 165421.69819999998 278630.87989999994 165421.69819999998 279253.97439999995 165421.69819999998 279776.29889999994 165074.0417 280182.73789999995 164576.9097 281449.08089999994 162998.1797 278765.2399 157130.0067 278412.5449 157130.0067 Z"/></g></g></g><g id="editor-g115866e4b2a_1_107"><g><g><path fill="#8A8728" fill-opacity="1" d="M 263562.4059 152494.5867 C 263552.3289 152494.5867 263543.9314 152502.9842 263537.2134 152518.09970000002 261973.5989 155811.59920000003 260487.2414 162331.41820000001 261508.3774 163496.99120000002 261921.5344 163962.2127 262327.9734 164158.71420000002 262714.2584 164158.71420000002 263206.3519 164158.71420000002 263663.1759 163837.9297 264061.2174 163342.47720000002 265572.7674 161473.1937 263899.9854 152494.5867 263562.4059 152494.5867 Z"/></g></g></g><g id="editor-g115866e4b2a_1_108"><g><g><path fill="#8A8728" fill-opacity="1" d="M 251040.05390000003 154602.3592 C 251024.9384 154602.3592 251008.14340000003 154604.0387 250993.02790000002 154607.3977 249881.19890000002 154866.0407 248673.63840000003 164251.0867 251344.04340000002 164251.0867 251377.63340000002 164251.0867 251414.5824 164249.40720000002 251449.85190000004 164246.04820000002 254671.13290000003 163957.1742 252200.58840000004 154602.3592 251040.05390000003 154602.3592 Z"/></g></g></g><g id="editor-g115866e4b2a_1_109"><g><g><path fill="#8A8728" fill-opacity="1" d="M 255153.14940000002 160806.4322 L 254773.5824 160814.8297 255037.26390000002 165245.3507 255415.1514 165236.95320000002 255153.14940000002 160806.4322 Z"/></g></g></g><g id="editor-g115866e4b2a_1_110"><g><g><path fill="#8A8728" fill-opacity="1" d="M 251780.7134 161545.4122 L 251411.22340000002 161563.8867 251673.22540000002 165994.40769999998 252051.1129 165975.9332 251780.7134 161545.4122 Z"/></g></g></g><g id="editor-g115866e4b2a_1_111"><g><g><path fill="#8A8728" fill-opacity="1" d="M 268406.08389999997 160661.9952 L 268396.0069 163109.02670000002 268639.5344 163109.02670000002 268647.93189999997 160670.3927 268406.08389999997 160661.9952 Z"/></g></g></g><g id="editor-g115866e4b2a_1_112"><g><g><path fill="#8A8728" fill-opacity="1" d="M 265285.57289999997 161340.51320000002 L 265275.4959 163779.1472 265519.0234 163789.22420000003 265530.77989999996 161340.51320000002 Z"/></g></g></g><g id="editor-g115866e4b2a_1_113"><g><g><path fill="#8A8728" fill-opacity="1" d="M 261857.7134 161115.4602 L 261857.7134 163564.1712 262091.1639 163564.1712 262099.5614 161127.2167 261857.7134 161115.4602 Z"/></g></g></g><g id="editor-g115866e4b2a_1_114"><g><g><path fill="#8A8728" fill-opacity="1" d="M 254360.42540000004 150573.23870000002 C 249872.80140000003 150573.23870000002 253112.55690000003 162778.16520000002 254844.12140000003 162778.16520000002 254869.31390000004 162778.16520000002 254894.5064 162774.80620000002 254919.69890000002 162769.76770000003 257019.07390000002 162312.9437 257969.67090000003 157066.18570000003 257764.77190000002 155589.9052 257415.43590000004 153042.1037 255571.34490000003 150670.6497 254598.91440000004 150584.9952 254516.61890000003 150578.2772 254437.68240000002 150573.23870000002 254360.42540000004 150573.23870000002 Z"/></g></g></g><g id="editor-g115866e4b2a_1_115"><g><g><path fill="#8A8728" fill-opacity="1" d="M 268231.41589999996 151335.7317 C 265804.53839999996 151335.7317 266093.4124 160858.49670000002 266948.2779 161088.5882 267492.4359 161236.3842 267917.34939999995 161327.0772 268367.4554 161327.0772 268800.76639999996 161327.0772 269259.26989999996 161243.1022 269872.2874 161048.2802 270980.75739999994 160688.8672 270952.20589999994 152402.21420000002 268688.2399 151438.1812 268527.00789999997 151369.3217 268374.17339999997 151335.7317 268231.41589999996 151335.7317 Z"/></g></g></g><g id="editor-g115866e4b2a_1_116"><g><g><path fill="#8A8728" fill-opacity="1" d="M 265016.8529 153900.3282 C 263115.6589 153900.3282 263342.39139999996 161809.0937 264014.19139999995 162002.23619999998 264439.1049 162124.83969999998 264769.9664 162200.4172 265122.6614 162200.4172 265463.5999 162200.4172 265824.6924 162129.87819999998 266306.70889999997 161961.9282 267171.6514 161671.3747 267141.4204 154782.06569999998 265374.5864 153984.3032 265246.9444 153927.2002 265129.3794 153900.3282 265016.8529 153900.3282 Z"/></g></g></g><g id="editor-g115866e4b2a_1_117"><g><g><path fill="#8A8728" fill-opacity="1" d="M 261363.94040000002 151767.3632 C 261347.1454 151767.3632 261328.6709 151767.3632 261311.8759 151769.0427 259368.6944 151943.7107 260176.5339 161523.57869999998 260787.8719 161748.6317 261182.5544 161891.3892 261501.6594 161983.7617 261847.63640000002 161983.7617 262207.0494 161983.7617 262595.0139 161884.67119999998 263129.0949 161641.1437 264168.70540000004 161179.2812 263261.7754 151767.3632 261363.94040000002 151767.3632 Z"/></g></g></g><g id="editor-g115866e4b2a_1_118"><g><g><path fill="#8A8728" fill-opacity="1" d="M 60727.5114 130415.87969999999 C 60700.63940000001 130415.87969999999 60673.767400000004 130419.23869999999 60646.89540000001 130422.59769999998 58169.632900000004 130800.4852 58149.47890000001 148873.58469999998 58189.78690000001 153683.6727 58124.286400000005 150002.2087 57731.28340000001 138924.2267 55386.701400000005 138924.2267 55282.572400000005 138924.2267 55173.40490000001 138946.06019999998 55059.1989 138993.0862 51931.969900000004 140284.6217 55887.19240000001 155500.89169999998 55887.19240000001 155500.89169999998 55887.19240000001 155500.89169999998 53542.610400000005 153656.8007 51423.08140000001 153656.8007 50936.02640000001 153656.8007 50459.04840000001 153754.21169999999 50027.416900000004 153994.38019999999 48179.96690000001 155025.5932 50825.17940000001 159029.5212 51980.67540000001 160621.6872 51826.161400000005 160529.3147 51629.659900000006 160463.8142 51376.055400000005 160463.8142 51154.36140000001 160463.8142 50889.000400000004 160514.1992 50569.89540000001 160640.1617 48929.02390000001 161281.7307 49619.29840000001 163856.4042 50299.49590000001 166432.7572 L 67593.3074 160213.5687 C 67593.3074 160213.5687 66234.5919 144782.3227 64602.11790000001 144570.7057 64580.284400000004 144567.3467 64560.13040000001 144567.3467 64538.29690000001 144567.3467 63176.222400000006 144567.3467 62892.386900000005 150541.3282 62843.68140000001 152120.0582 62910.86140000001 149234.67719999998 63283.71040000001 130415.87969999999 60727.5114 130415.87969999999 Z"/></g></g></g><g id="editor-g115866e4b2a_1_119"><g><g><path fill="#563115" fill-opacity="1" d="M 65767.6909 149409.3452 L 65690.4339 164711.2697 144005.51890000002 173348.9382 144005.51890000002 149409.3452 Z"/></g></g></g><g id="editor-g115866e4b2a_1_120"><g><g><path fill="#CB9B75" fill-opacity="1" d="M 111065.4854 151401.2322 L 111065.4854 166451.2317 128856.4289 168209.66820000001 128856.4289 151401.2322 Z"/></g></g></g><g id="editor-g115866e4b2a_1_121"><g><g><path fill="#563115" fill-opacity="1" d="M 121784.0544 151401.2322 L 121784.0544 168209.66820000001 121940.2479 168209.66820000001 121940.2479 151401.2322 Z"/></g></g></g><g id="editor-g115866e4b2a_1_122"><g><g><path fill="#563115" fill-opacity="1" d="M 125573.00640000001 151401.2322 L 125573.00640000001 168209.66820000001 125729.1999 168209.66820000001 125729.1999 151401.2322 Z"/></g></g></g><g id="editor-g115866e4b2a_1_123"><g><g><path fill="#563115" fill-opacity="1" d="M 117995.1024 151401.2322 L 117995.1024 168209.66820000001 118151.29590000001 168209.66820000001 118151.29590000001 151401.2322 Z"/></g></g></g><g id="editor-g115866e4b2a_1_124"><g><g><path fill="#563115" fill-opacity="1" d="M 114204.47090000001 151401.2322 L 114204.47090000001 168209.66820000001 114360.66440000001 168209.66820000001 114360.66440000001 151401.2322 Z"/></g></g></g><g id="editor-g115866e4b2a_1_125"><g><g><path fill="#563115" fill-opacity="1" d="M 65767.69090000002 149835.9382 L 65767.69090000002 152020.9677 144005.51890000002 152020.9677 144005.51890000002 149835.9382 Z"/></g></g></g><g id="editor-g115866e4b2a_1_126"><g><g><path fill="#FFFFFF" fill-opacity="1" d="M 110783.32940000002 150195.3512 L 110783.32940000002 165441.8522 111698.65690000002 165441.8522 111698.65690000002 150195.3512 Z"/></g></g></g><g id="editor-g115866e4b2a_1_127"><g><g><path fill="#563115" fill-opacity="1" d="M 65729.06240000001 153218.4512 L 65690.4339 166083.4212 104555.7434 173348.9382 104555.7434 153218.4512 Z"/></g></g></g><g id="editor-g115866e4b2a_1_128"><g><g><path fill="#563115" fill-opacity="1" d="M 98445.7224 155734.3422 L 98445.7224 160814.8297 100998.5624 160814.8297 100998.5624 155734.3422 Z"/></g></g></g><g id="editor-g115866e4b2a_1_129"><g><g><path fill="#FFFFFF" fill-opacity="1" d="M 98756.42990000002 156043.3702 L 98756.42990000002 160505.8017 100689.53440000002 160505.8017 100689.53440000002 156043.3702 Z"/></g></g></g><g id="editor-g115866e4b2a_1_130"><g><g><path fill="#563115" fill-opacity="1" d="M 94267.12640000001 155734.3422 L 94267.12640000001 160814.8297 96813.24840000001 160814.8297 96813.24840000001 155734.3422 Z"/></g></g></g><g id="editor-g115866e4b2a_1_131"><g><g><path fill="#563115" fill-opacity="1" d="M 90078.4534 155734.3422 L 90078.4534 160814.8297 92634.65239999999 160814.8297 92634.65239999999 155734.3422 Z"/></g></g></g><g id="editor-g115866e4b2a_1_132"><g><g><path fill="#563115" fill-opacity="1" d="M 130102.61790000001 154110.26570000002 L 130102.61790000001 172601.56070000003 143928.2619 172601.56070000003 143928.2619 154110.26570000002 Z"/></g></g></g><g id="editor-g115866e4b2a_1_133"><g><g><path fill="#FFFFFF" fill-opacity="1" d="M 130519.13390000002 154567.0897 L 130519.13390000002 173048.3077 144161.71240000002 173048.3077 144072.69890000002 154567.0897 Z"/></g></g></g><g id="editor-g115866e4b2a_1_134"><g><g><path fill="#FFFFFF" fill-opacity="1" d="M 130519.13390000002 154567.0897 L 130519.13390000002 173048.3077 132569.8034 173048.3077 132569.8034 157385.2907 144082.7759 157385.2907 144072.69890000002 154567.0897 Z"/></g></g></g><g id="editor-g115866e4b2a_1_135"><g><g><path fill="#563115" fill-opacity="1" d="M 138622.7214 154325.2417 L 138622.7214 169141.7907 138992.2114 169141.7907 138992.2114 154325.2417 Z"/></g></g></g><g id="editor-g115866e4b2a_1_136"><g><g><path fill="#AAAA35" fill-opacity="1" d="M 245914.21990000003 164046.1877 C 242425.8984 164046.1877 238961.08990000002 164078.0982 235543.3074 164146.9577 199593.6099 164867.4632 164576.0349 166373.97470000002 152722.1239 169549.90920000002 L 322847.0764 179841.88520000002 C 322847.0764 179841.88520000002 361186.7024 175070.42570000002 333283.4894 169482.7292 325831.5479 167994.69220000002 284522.56590000005 164046.1877 245914.21990000003 164046.1877 Z"/></g></g></g><g id="editor-g115866e4b2a_1_137"><g><g><path fill="#AAAA35" fill-opacity="1" d="M 193224.9459 159847.4377 C 192993.17489999998 159847.4377 192761.4039 159849.1172 192527.9534 159854.1557 182172.1564 160065.7727 141333.4344 169549.9092 131946.7089 172747.6772 L 225991.9909 176361.96120000002 C 225991.9909 176361.96120000002 212828.0699 159847.4377 193224.9459 159847.4377 Z"/></g></g></g><g id="editor-g115866e4b2a_1_138"><g><g><path fill="#AAAA35" fill-opacity="1" d="M 194929.6384 159902.8612 C 198379.3314 161827.5682 200379.6159 164101.6112 200379.6159 166538.5657 200379.6159 169801.8342 196795.5629 172776.2287 190907.2359 175011.64320000002 L 225991.9909 176361.96120000002 C 225991.9909 176361.96120000002 213585.5244 160806.4322 194929.6384 159902.8612 Z"/></g></g></g><g id="editor-g115866e4b2a_1_139"><g><g><path fill="#AAAA35" fill-opacity="1" d="M 132851.9594 172455.4442 C 132519.4184 172562.9322 132218.7879 172658.6637 131946.7089 172747.6772 L 133412.9124 172806.4597 C 133219.7699 172688.8947 133026.6274 172573.0092 132851.9594 172455.4442 Z"/></g></g></g><g id="editor-g115866e4b2a_1_140"><g><g><path fill="#AAAA35" fill-opacity="1" d="M 64141.9349 160536.0327 C 60828.28140000001 160536.0327 58230.094900000004 160719.0982 56557.312900000004 161127.21670000002 40135.16190000001 165137.8627 -2082.429599999994 175953.8427 -2082.429599999994 175953.8427 -2082.429599999994 175953.8427 26524.493900000005 183284.8602 72354.6899 183284.8602 79020.62540000002 183284.8602 86051.0124 183130.3462 93410.5814 182775.9717 151381.8829 179967.8477 178186.7029 174758.0387 178186.7029 174758.0387 178186.7029 174758.0387 93336.68340000001 160536.0327 64141.9349 160536.0327 Z"/></g></g></g><g id="editor-g115866e4b2a_1_141"><g><g><path fill="#AAAA35" fill-opacity="1" d="M 64141.9349 160536.0327 C 60826.60190000001 160536.0327 58230.094900000004 160719.0982 56557.312900000004 161127.21670000002 40135.16190000001 165137.8627 -2082.429599999994 175953.8427 -2082.429599999994 175953.8427 -2082.429599999994 175953.8427 26524.493900000005 183284.8602 72354.6899 183284.8602 79020.62540000002 183284.8602 86051.0124 183130.3462 93410.5814 182775.9717 96813.24840000001 182609.7012 100096.6709 182435.0332 103272.6054 182250.2882 106752.5294 179888.9112 108694.0314 177275.6092 108694.0314 174524.5882 108694.0314 170164.6062 103846.9944 166140.5242 95674.54740000001 162914.2047 83054.7844 161495.0272 71721.5184 160536.0327 64141.9349 160536.0327 Z"/></g></g></g><g id="editor-g115866e4b2a_1_142"><g><g><path fill="#AAAA35" fill-opacity="1" d="M 215997.5158197 173214.5782 L -7105.814099999996 174758.0387 68813.85127474999 210019.14119999998 215997.5158197 173214.5782 Z"/></g></g></g><g id="editor-g115866e4b2a_1_143"><g><g><path fill="#AAAA35" fill-opacity="1" d="M 153515.68764999998 175594.4297 L -27405.090849999997 175671.68670000002 36928.156650000004 210932.7892 153515.68764999998 175594.4297 Z"/></g></g></g><g id="editor-g115866e4b2a_1_144"><g><g><path fill="#AAAA35" fill-opacity="1" d="M -7105.814099999996 174758.0387 L -6756.478099999996 174944.4632 C -6853.889099999996 174885.6807 -6939.543599999996 174816.8212 -7038.634099999996 174758.0387 Z"/></g></g></g><g id="editor-g115866e4b2a_1_145"><g><g><path fill="#AAAA35" fill-opacity="1" d="M -557.4435999999971 178343.77120000002 L 678.668400000003 210583.45320000002 186407.8554 193852.2742 C 186312.1239 193847.23570000002 186147.5329 193845.55620000002 185914.0824 193845.55620000002 178391.6019 193845.55620000002 100847.4074 196255.6387 91584.9649 196255.6387 91185.2439 196255.6387 90913.1649 196252.2797 90778.8049 196242.20270000002 51077.104400000004 193452.55320000002 16786.752900000003 186408.73020000002 -557.4435999999971 178343.77120000002 Z"/></g></g></g><g id="editor-g115866e4b2a_1_146"><g><g><path fill="#AAAA35" fill-opacity="1" d="M 37582.3219 189541.83745 L 37582.3219 189541.83745 C 37765.38740000001 189570.38895 37960.20940000001 189590.54295 38143.274900000004 189610.69694999998 65147.955400000006 193255.21195 89621.6294 222033.44444999998 102447.97090000001 228971.45895 L 190984.4929 217866.60494999998 163905.9144 189716.50545 37582.3219 189541.83745 Z"/></g></g></g><g id="editor-g115866e4b2a_1_147"><g><g><path fill="#AAAA35" fill-opacity="1" d="M 357787.3944 170843.1242 L 180549.7594 173233.0527 134696.0504 190869.4822 214022.1944 203054.2547 346410.46140000003 181123.3437 357787.3944 170843.1242 Z"/></g></g></g><g id="editor-g115866e4b2a_1_148"><g><g><path fill="#AAAA35" fill-opacity="1" d="M 169584.3039 184915.6547 L 133486.81040000002 199431.5732 302884.5394 238940.1312 332937.5124 189124.4817 169584.3039 184915.6547 Z"/></g></g></g><g id="editor-g115866e4b2a_1_149"><g><g><path fill="#AAAA35" fill-opacity="1" d="M 399480.9819 163527.2222 L 239382.6444 191285.9982 329086.4189 209552.2402 381196.26540000003 215275.97619999998 399480.9819 163527.2222 Z"/></g></g></g><g id="editor-g115866e4b2a_1_150"><g><g><path fill="#FFD52F" fill-opacity="1" d="M 150577.4024 188820.4922 C 61246.476899999994 188820.4922 52299.780399999996 197632.8287 55887.1924 198331.5007 57046.047399999996 198559.91270000002 60554.522899999996 198660.6827 65806.3194 198660.6827 101541.04089999999 198660.6827 217999.2504 193973.1982 224430.05589999998 192550.6617 231794.6634 190928.2647 183551.02589999998 188995.1602 159426.6879 188847.3642 156393.5109 188828.8897 153444.3089 188820.4922 150577.4024 188820.4922 Z"/></g></g></g><g id="editor-g115866e4b2a_1_151"><g><g><path fill="#FFD52F" fill-opacity="1" d="M 152718.7649 189205.0977 C 65928.9229 189205.0977 57242.5489 196630.16720000003 60725.831900000005 197233.10770000002 61849.417400000006 197424.5707 65245.366400000006 197510.22520000002 70330.8924 197510.22520000002 105005.8494 197510.22520000002 218202.4699 193549.96420000002 224448.5304 192354.1602 231609.9184 190976.9702 184736.7529 189352.89370000002 161301.0099 189226.93120000002 158358.5259 189211.8157 155498.3374 189205.0977 152718.7649 189205.0977 Z"/></g></g></g><g id="editor-g115866e4b2a_1_152"><g><g><path fill="#FFD52F" fill-opacity="1" d="M 60287.4824 196445.4222 L 60287.4824 196445.4222 C 59909.594900000004 196843.4637 60153.1224 197135.6967 60725.831900000005 197233.1077 61775.519400000005 197407.7757 64825.491400000006 197495.1097 69373.57740000001 197506.8662 65960.8334 197184.4022 62920.93840000001 196835.0662 60287.4824 196445.4222 Z"/></g></g></g><g id="editor-g115866e4b2a_1_153"><g><g><path fill="#FFD52F" fill-opacity="1" d="M 157822.7654 189216.8542 C 165467.8494 190246.3877 170005.8584 191537.9232 170005.8584 192928.5492 170005.8584 193696.0807 168647.1429 194424.9837 166176.59840000002 195095.1042 196174.1479 194035.3397 221581.6239 192910.0747 224448.5304 192354.1602 231609.91840000002 190976.9702 184736.75290000002 189352.89370000002 161301.0099 189226.9312 160125.3599 189226.9312 158978.26140000002 189216.8542 157822.7654 189216.8542 Z"/></g></g></g><g id="editor-g115866e4b2a_1_154"><g><g><path fill="#563115" fill-opacity="1" d="M 163690.9384 191606.7827 C 160184.1424 191606.7827 157345.7874 191771.37370000003 157345.7874 191976.2727 157345.7874 192179.4922 160184.1424 192345.76270000002 163690.9384 192345.76270000002 167189.3369 192345.76270000002 170036.0894 192179.4922 170036.0894 191976.2727 170036.0894 191771.37370000003 167189.3369 191606.7827 163690.9384 191606.7827 Z"/></g></g></g><g id="editor-g115866e4b2a_1_155"><g><g><path fill="#563115" fill-opacity="1" d="M 163145.1009 191606.7827 C 159893.5889 191626.93670000002 157345.7874 191781.45070000002 157345.7874 191976.2727 157345.7874 192179.4922 160184.1424 192345.76270000002 163690.9384 192345.76270000002 164324.1099 192345.76270000002 164943.8454 192335.6857 165526.6319 192327.2882 164409.76440000001 192142.54320000001 163575.0529 191888.9387 163145.1009 191606.7827 Z"/></g></g></g><g id="editor-g115866e4b2a_1_156"><g><g><path fill="#EF5F3C" fill-opacity="1" d="M 41641.67340000001 157774.9347 L 41613.121900000006 158492.08120000002 43645.316900000005 157939.52570000003 41641.67340000001 157774.9347 Z"/></g></g></g><g id="editor-g115866e4b2a_1_157"><g><g><path fill="#CB9B75" fill-opacity="1" d="M 41604.7244 157706.0752 L 41604.7244 165226.8762 41641.6734 165226.8762 41641.6734 157706.0752 Z"/></g></g></g><g id="editor-g115866e4b2a_1_158"><g><g><path fill="#FFFFFF" fill-opacity="1" d="M 64516.4634 149311.9342 L 64516.4634 150652.1752 145268.5029 150652.1752 145268.5029 149311.9342 Z"/></g></g></g><g id="editor-g115866e4b2a_1_159"><g><g><path fill="#FFD52F" fill-opacity="1" d="M 52748.2069 162254.1612 L 52748.2069 162254.1612 C 43040.696899999995 164555.0762 34607.9274 166528.48870000002 17779.337399999997 171232.7682 29379.6439 171222.6912 49170.8719 168985.59720000002 52748.2069 162254.1612 Z"/></g></g></g><g id="editor-g115866e4b2a_1_160"><g><g><path fill="#FFD52F" fill-opacity="1" d="M 52524.83340000001 162254.1612 L 52524.83340000001 162254.1612 C 42924.811400000006 164410.6392 35044.59740000001 166499.93720000001 18622.446400000008 170922.0607 29954.032900000006 170891.8297 49269.962400000004 168617.7867 52524.83340000001 162254.1612 Z"/></g></g></g><g id="editor-g115866e4b2a_1_161"><g><g><path fill="#AAAA35" fill-opacity="1" d="M 68940.26640000001 158453.4527 C 68046.77240000002 158453.4527 67002.12340000001 159185.71469999998 67284.27940000001 161827.5682 L 69381.97490000002 162010.6337 C 70023.54390000002 161523.57869999998 70567.70190000001 159464.5117 69964.76140000002 158833.0197 69769.93940000002 158624.7617 69371.89790000001 158453.4527 68940.26640000001 158453.4527 Z"/></g></g></g><g id="editor-g115866e4b2a_1_162"><g><g><path fill="#AAAA35" fill-opacity="1" d="M 65624.9334 156983.8902 C 65282.31539999999 156983.8902 64974.96689999999 157064.5062 64776.785899999995 157190.4687 63893.368899999994 157754.7807 64096.58839999999 160299.2232 64776.785899999995 161058.3572 L 67400.16489999999 161437.9242 C 68496.8784 157979.8337 66835.8529 156983.8902 65624.9334 156983.8902 Z"/></g></g></g><g id="editor-g115866e4b2a_1_163"><g><g><path fill="#AAAA35" fill-opacity="1" d="M 62774.8219 156481.71970000002 C 62223.945900000006 156481.71970000002 61716.7369 156659.74670000002 61444.657900000006 156889.83820000003 60539.407400000004 157657.3697 61113.79640000001 160310.97970000003 61968.66190000001 160989.4977 L 64902.748400000004 160903.8432 C 65569.5099 157439.03470000002 64054.600900000005 156481.71970000002 62774.8219 156481.71970000002 Z"/></g></g></g><g id="editor-g115866e4b2a_1_164"><g><g><path fill="#FFD52F" fill-opacity="1" d="M 193809.4119 159800.4117 C 188977.4904 159800.4117 180024.07590000003 161338.8337 180015.6784 161835.9657 180005.6014 162388.5212 191762.1014 162165.1477 195268.89740000002 162262.5587 195646.78490000003 162274.3152 196017.95440000002 162279.3537 196377.36740000002 162279.3537 199350.0824 162279.3537 201614.04840000003 161931.6972 201622.44590000002 161446.3217 201634.2024 160903.8432 198564.07640000002 160124.5552 195075.7549 159845.7582 194699.54690000002 159813.8477 194272.95390000002 159800.4117 193809.4119 159800.4117 Z"/></g></g></g><g id="editor-g115866e4b2a_1_165"><g><g><path fill="#FFD52F" fill-opacity="1" d="M 190761.11940000003 159941.4897 C 185952.7109 160339.5312 180024.07590000003 161427.84720000002 180015.6784 161835.9657 180005.6014 162302.8667 188428.29390000002 162213.8532 193142.6504 162235.68670000002 191867.90990000003 161652.9002 191002.96740000002 160845.0607 190761.11940000003 159941.4897 Z"/></g></g></g><g id="editor-g115866e4b2a_1_166"><g><g><path fill="#FFFFFF" fill-opacity="1" d="M 94549.2824 156043.3702 L 94549.2824 160505.8017 96482.3869 160505.8017 96482.3869 156043.3702 Z"/></g></g></g><g id="editor-g115866e4b2a_1_167"><g><g><path fill="#FFFFFF" fill-opacity="1" d="M 90360.60940000002 156043.3702 L 90360.60940000002 160505.8017 92293.71390000002 160505.8017 92293.71390000002 156043.3702 Z"/></g></g></g><g id="editor-g115866e4b2a_1_168"><g><g><path fill="#EF5F3C" fill-opacity="1" d="M 167992.13790000003 142790.4357 C 166667.01240000004 142790.4357 165518.23440000002 143044.04020000002 165518.23440000002 143044.04020000002 L 165303.25840000002 147776.8712 C 165303.25840000002 147776.8712 167820.82890000002 146387.9247 169884.93440000003 146387.9247 170214.11640000003 146387.9247 170529.8624 146423.1942 170822.09540000002 146503.8102 171084.09740000003 146577.7082 171401.5229 146609.6187 171760.9359 146609.6187 174883.1264 146609.6187 181122.46890000004 144122.2792 181122.46890000004 144122.2792 L 181122.46890000004 144122.2792 C 181122.46890000004 144122.2792 179043.24790000002 144337.2552 176690.26840000003 144337.2552 174480.04640000002 144337.2552 172027.9764 144147.4717 170832.1724 143413.5302 170054.5639 142929.8342 168974.6454 142790.4357 167992.13790000003 142790.4357 Z"/></g></g></g><g id="editor-g115866e4b2a_1_169"><g><g><path fill="#CB9B75" fill-opacity="1" d="M 165226.0014 142615.7677 L 165226.0014 191909.09269999998 165518.23440000002 191909.09269999998 165518.23440000002 142615.7677 Z"/></g></g></g><g id="editor-g115866e4b2a_1_170"><g><g><path fill="#EF5F3C" fill-opacity="1" d="M 305610.3679 161290.1282 L 305570.0599 161904.8252 307592.1779 161456.39870000002 305610.3679 161290.1282 Z"/></g></g></g><g id="editor-g115866e4b2a_1_171"><g><g><path fill="#CB9B75" fill-opacity="1" d="M 305581.81639999995 161244.7817 L 305484.4054 167586.5737 305523.0339 167586.5737 305610.36789999995 161244.7817 Z"/></g></g></g><g id="editor-g115866e4b2a_1_172"><g><g><path fill="#FFD52F" fill-opacity="1" d="M 292134.0599 165712.2517 L 292134.0599 165712.2517 C 296656.95339999994 167215.4042 303474.0439 168846.1987 308583.0829 168846.1987 311231.65439999994 168846.1987 313423.40189999994 168407.8492 314597.3724 167285.94319999998 308398.3379 166743.46469999998 303025.6174 166246.3327 292134.0599 165712.2517 Z"/></g></g></g><g id="editor-g115866e4b2a_1_173"><g><g><path fill="#FFD52F" fill-opacity="1" d="M 292698.3719 165693.7772 C 297123.8544 167156.62170000002 303806.5849 168728.6337 308754.3919 168728.6337 311300.5139 168728.6337 313388.1324 168312.1177 314471.40989999997 167248.99420000002 308359.7094 166635.9767 303277.5424 166316.87170000002 292698.3719 165693.7772 Z"/></g></g></g></g></g></g></g></svg>